<?xml version="1.0" standalone="no"?>
<!DOCTYPE svg PUBLIC "-//W3C//DTD SVG 20010904//EN"
 "http://www.w3.org/TR/2001/REC-SVG-20010904/DTD/svg10.dtd">
<svg version="1.0" xmlns="http://www.w3.org/2000/svg"
 width="600.000000pt" height="600.000000pt" viewBox="0 0 600.000000 600.000000"
 preserveAspectRatio="xMidYMid meet">
<metadata>
Created by potrace 1.11, written by Peter Selinger 2001-2013
</metadata>
<g transform="translate(0.000000,600.000000) scale(0.100000,-0.100000)"
fill="#000000" stroke="none">
<path d="M2795 5839 c-1161 -84 -2154 -862 -2513 -1970 -330 -1017 -61 -2132
697 -2890 405 -404 905 -673 1461 -783 208 -41 311 -50 570 -50 200 0 272 5
390 22 632 96 1169 363 1611 802 207 205 348 390 488 636 170 301 294 685 342
1064 18 137 18 514 0 650 -95 741 -446 1394 -1001 1857 -573 479 -1304 716
-2045 662z m1417 -471 c-51 -84 -1022 -1778 -1027 -1789 -3 -10 162 -109 512
-310 285 -163 518 -300 519 -305 3 -9 -2627 -2176 -2633 -2170 -2 1 105 189
236 417 666 1156 808 1404 805 1410 -1 3 -237 140 -523 305 -286 164 -517 302
-513 305 21 20 2637 2169 2640 2169 2 0 -5 -15 -16 -32z"/>
</g>
</svg>
